<?xml version="1.0" standalone="no"?>
<!DOCTYPE svg PUBLIC "-//W3C//DTD SVG 20010904//EN"
 "http://www.w3.org/TR/2001/REC-SVG-20010904/DTD/svg10.dtd">
<svg version="1.0" xmlns="http://www.w3.org/2000/svg"
 width="300.000000pt" height="74.000000pt" viewBox="0 0 300.000000 74.000000"
 preserveAspectRatio="xMidYMid meet">
<metadata>
Created by potrace 1.10, written by Peter Selinger 2001-2011
</metadata>
<g transform="translate(0.000000,74.000000) scale(0.100000,-0.100000)"
fill="#000000" stroke="none">
<path d="M2589 664 c-30 -36 -9 -120 37 -145 26 -13 31 -46 14 -80 -10 -17
-14 -15 -57 29 -26 26 -54 61 -62 77 -19 35 -82 69 -110 60 -28 -9 -35 -39
-16 -74 19 -38 47 -53 90 -50 39 4 68 -18 96 -73 19 -37 19 -37 -6 -112 -35
-105 -35 -236 1 -236 10 0 14 14 15 48 0 26 4 70 8 97 5 29 5 52 0 56 -5 3 -3
25 6 50 9 24 14 52 12 61 -3 9 7 28 24 44 l28 27 55 -57 c60 -60 102 -136 100
-176 -1 -14 -2 -34 -3 -45 -2 -30 -48 -75 -77 -75 -34 0 -76 46 -94 101 -15
48 -30 72 -30 48 0 -42 33 -119 60 -143 42 -35 64 -39 99 -21 41 21 65 69 65
130 0 65 -21 105 -94 187 l-60 66 45 46 c41 43 47 46 83 40 32 -5 43 -2 70 21
55 46 31 105 -37 90 -27 -6 -64 -37 -72 -60 -2 -6 -25 -30 -51 -54 l-48 -44 6
60 c6 54 4 61 -21 91 -29 35 -55 41 -76 16z m50 -37 c6 -8 14 -28 17 -45 8
-40 -17 -45 -34 -7 -22 49 -11 84 17 52z m236 -27 c-10 -11 -30 -20 -44 -20
l-26 1 24 19 c13 11 32 20 44 20 19 0 20 -1 2 -20z m-397 -57 c18 -19 22 -28
13 -31 -14 -5 -62 27 -69 46 -7 22 29 12 56 -15z"/>
<path d="M412 508 c-29 -29 -3 -78 42 -78 18 0 46 27 46 45 0 36 -62 59 -88
33z"/>
<path d="M665 507 c-34 -16 -55 -53 -55 -97 0 -25 -3 -29 -27 -27 -25 2 -28
-1 -28 -28 0 -27 3 -30 28 -28 l27 2 0 -135 0 -134 40 0 39 0 3 132 3 133 38
-3 c37 -3 37 -3 37 33 0 36 -1 36 -37 33 -41 -3 -51 9 -33 42 9 17 19 21 46
18 30 -4 34 -1 40 25 3 16 3 31 0 34 -12 12 -93 12 -121 0z m12 -128 c12 -14
11 -21 -4 -48 -10 -17 -20 -31 -23 -31 -3 0 -12 13 -21 29 -16 28 -16 31 5 60
11 16 23 25 25 18 2 -7 10 -19 18 -28z"/>
<path d="M30 275 l0 -215 155 0 155 0 0 41 0 40 -110 -3 -110 -3 0 178 0 177
-45 0 -45 0 0 -215z m80 -167 c0 -15 -28 -8 -34 8 -10 26 5 39 21 19 7 -11 13
-22 13 -27z"/>
<path d="M2829 411 c-35 -35 -36 -44 -8 -72 27 -27 64 -19 102 22 32 35 34 54
8 69 -35 18 -71 11 -102 -19z m62 -31 c-13 -11 -32 -20 -44 -20 -19 0 -20 1
-2 20 10 11 30 20 44 20 l26 -1 -24 -19z"/>
<path d="M915 389 c-44 -12 -92 -67 -106 -121 -34 -126 80 -239 210 -208 25 6
57 20 71 30 l25 19 -21 21 c-20 21 -23 21 -52 6 -52 -27 -89 -21 -131 21 l-36
38 125 5 125 5 -3 40 c-5 63 -32 107 -82 133 -47 23 -75 26 -125 11z m105 -79
c38 -38 27 -48 -56 -52 -42 -2 -78 0 -80 4 -2 3 8 20 22 37 31 38 83 42 114
11z m-145 -70 c7 -12 -19 -53 -28 -43 -4 3 -7 17 -7 30 0 23 23 32 35 13z"/>
<path d="M1287 386 c-47 -17 -71 -38 -91 -81 -37 -77 -8 -183 61 -226 51 -32
135 -32 187 0 40 25 45 40 18 64 -17 15 -21 15 -60 -4 -32 -16 -48 -19 -69
-12 -84 28 -90 166 -8 193 34 11 59 6 88 -18 16 -14 20 -13 45 12 l27 27 -23
19 c-25 21 -83 40 -117 40 -11 -1 -37 -7 -58 -14z"/>
<path d="M1616 389 c-64 -15 -79 -36 -52 -72 12 -16 16 -16 42 -2 31 16 82 20
100 7 10 -6 34 -45 34 -55 0 -2 -30 -6 -68 -9 -37 -3 -81 -12 -99 -21 -61 -32
-64 -124 -5 -163 37 -24 106 -22 141 4 28 21 29 21 34 2 4 -15 14 -20 41 -20
l36 0 0 115 c0 144 -12 178 -72 205 -47 21 -72 23 -132 9z m160 -177 c-4 -3
-12 0 -18 6 -9 9 -8 18 3 39 l14 27 3 -33 c2 -18 1 -36 -2 -39z m-43 -10 c3
-4 3 -20 0 -36 -12 -59 -123 -70 -123 -12 0 14 9 31 22 40 23 16 93 22 101 8z"/>
<path d="M2043 390 c-12 -5 -28 -18 -35 -30 -17 -27 -28 -25 -28 5 0 23 -4 25
-40 25 l-40 0 2 -162 3 -163 43 -3 42 -3 0 101 c0 56 4 109 10 119 11 22 60
44 86 39 16 -2 19 3 19 37 0 44 -17 53 -62 35z m-69 -66 c7 -17 -10 -54 -24
-54 -11 0 -14 53 -3 63 11 11 20 8 27 -9z"/>
<path d="M2230 378 c-53 -27 -78 -60 -91 -117 -28 -125 83 -232 210 -201 25 6
57 20 71 30 l25 19 -21 21 c-20 21 -23 21 -52 6 -57 -30 -116 -16 -146 35
l-17 28 123 3 123 3 -3 40 c-5 63 -32 107 -82 133 -24 12 -56 22 -70 22 -14 0
-46 -10 -70 -22z m120 -68 c11 -11 20 -28 20 -37 0 -16 -10 -18 -75 -18 -82 0
-88 6 -54 49 26 33 79 36 109 6z m-146 -66 c6 -17 -9 -44 -25 -44 -5 0 -9 14
-9 30 0 33 23 42 34 14z"/>
<path d="M409 383 c0 -5 0 -78 0 -163 l0 -155 40 -3 41 -3 0 165 0 166 -40 0
c-22 0 -40 -3 -41 -7z"/>
</g>
</svg>
